<?xml version="1.0" standalone="no"?>
<!DOCTYPE svg PUBLIC "-//W3C//DTD SVG 20010904//EN"
 "http://www.w3.org/TR/2001/REC-SVG-20010904/DTD/svg10.dtd">
<svg version="1.0" xmlns="http://www.w3.org/2000/svg"
 width="500.000000pt" height="500.000000pt" viewBox="0 0 500.000000 500.000000"
 preserveAspectRatio="xMidYMid meet">

<g transform="translate(0.000000,500.000000) scale(0.100000,-0.100000)"
fill="#000000" stroke="none">
<path d="M2795 2534 c-18 -19 -16 -33 8 -48 18 -11 47 0 54 21 4 12 -23 43
-37 43 -5 0 -16 -7 -25 -16z"/>
<path d="M3136 2534 c-20 -19 -20 -29 0 -48 12 -12 20 -13 35 -6 21 12 25 40
7 58 -16 16 -23 15 -42 -4z"/>
<path d="M2400 2527 c26 -13 26 -12 117 -272 22 -60 43 -110 47 -110 5 0 34
77 66 170 71 212 66 202 98 214 22 8 14 9 -43 9 -38 0 -60 -3 -48 -5 33 -6 37
-40 15 -109 -11 -32 -25 -78 -33 -102 -7 -24 -16 -45 -19 -47 -4 -3 -15 17
-25 43 -9 26 -28 76 -41 112 -30 81 -30 97 -1 103 12 2 -18 5 -68 5 -78 2 -87
0 -65 -11z"/>
<path d="M2256 2399 c16 -18 19 -37 19 -120 0 -86 -3 -100 -20 -113 -28 -21 3
-21 33 0 73 51 67 200 -9 239 -39 21 -45 19 -23 -6z"/>
<path d="M2968 2413 c7 -3 16 -2 19 1 4 3 -2 6 -13 5 -11 0 -14 -3 -6 -6z"/>
<path d="M3304 2404 c-41 -20 -64 -63 -64 -119 0 -52 19 -96 52 -119 32 -23
39 -20 22 12 -16 31 -19 157 -4 197 14 37 39 43 62 16 23 -29 26 -171 4 -212
-12 -24 -12 -26 6 -21 37 9 68 64 68 121 0 64 -22 105 -66 126 -39 18 -41 18
-80 -1z"/>
<path d="M3646 2389 c12 -24 15 -54 12 -130 l-3 -99 30 0 30 0 -5 111 c-5 101
-7 112 -29 130 -13 10 -30 19 -37 19 -12 0 -12 -5 2 -31z"/>
<path d="M1850 2294 c4 -100 8 -118 24 -130 11 -8 28 -14 38 -14 18 0 18 2 4
22 -12 17 -16 49 -16 130 l0 108 -27 0 -28 0 5 -116z"/>
<path d="M1995 2363 c4 -26 3 -73 -2 -103 -13 -83 -8 -100 30 -100 l32 0 -5
122 -5 123 -28 3 c-28 3 -28 3 -22 -45z"/>
<path d="M2128 2220 l3 -190 29 0 30 0 0 76 c0 67 2 75 15 64 14 -11 14 -9 0
16 -20 38 -20 150 0 188 12 23 12 26 1 17 -11 -9 -15 -8 -20 4 -3 8 -17 15
-33 15 l-28 0 3 -190z"/>
<path d="M2788 2285 l3 -125 30 0 30 0 -3 123 -3 122 -30 3 -30 3 3 -126z"/>
<path d="M2926 2394 c-16 -16 -21 -59 -10 -88 3 -9 35 -32 70 -52 57 -32 64
-39 64 -66 0 -26 2 -29 15 -18 9 7 15 29 15 52 0 36 -4 41 -47 66 -25 15 -59
39 -75 54 -24 23 -27 31 -18 48 13 24 7 26 -14 4z"/>
<path d="M3025 2379 c17 -19 31 -36 33 -38 1 -2 2 10 2 28 0 18 -4 30 -10 26
-5 -3 -20 -1 -32 6 -20 10 -19 7 7 -22z"/>
<path d="M3125 2285 l0 -125 34 0 c26 0 32 3 27 16 -3 9 -6 65 -6 125 l0 109
-27 0 -28 0 0 -125z"/>
<path d="M3505 2285 l0 -125 30 0 30 0 0 73 c1 39 2 86 4 102 5 53 -3 70 -35
73 l-29 3 0 -126z"/>
<path d="M2904 2224 c3 -9 6 -25 6 -37 0 -17 6 -22 28 -22 l28 0 -25 37 c-26
38 -48 51 -37 22z"/>
<path d="M3404 1966 c-11 -28 1 -51 28 -54 31 -4 48 29 28 53 -16 19 -49 19
-56 1z"/>
<path d="M2450 1961 c25 -7 25 -7 28 -146 4 -175 -1 -202 -36 -217 l-27 -12
32 -4 c18 -2 50 -2 70 0 l38 3 -27 14 c-14 7 -29 23 -32 35 -10 38 -7 236 4
236 6 0 13 -8 16 -17 3 -10 12 -34 19 -53 8 -19 29 -77 47 -127 18 -51 38 -93
43 -93 6 0 25 57 43 128 51 193 55 203 64 194 5 -5 7 -76 6 -157 l-3 -149 -25
-7 c-14 -4 14 -7 65 -7 51 0 79 3 65 7 l-25 7 -3 181 -2 182 27 4 c16 2 -3 5
-40 6 -46 1 -69 -3 -72 -11 -2 -7 -18 -66 -36 -130 -17 -65 -34 -118 -38 -118
-3 0 -28 59 -55 130 l-48 130 -62 -1 c-41 -1 -53 -3 -36 -8z"/>
<path d="M3268 1905 c4 -75 -3 -109 -18 -85 -14 22 -12 7 5 -33 18 -44 19 -99
1 -149 -11 -30 -11 -35 0 -31 8 3 14 -2 14 -11 0 -13 10 -16 48 -15 38 0 43 2
25 9 -23 9 -23 12 -23 195 l0 185 -27 0 -28 0 3 -65z"/>
<path d="M3180 1841 c-30 -8 -70 -80 -70 -128 0 -69 46 -133 94 -132 28 0 29
1 9 9 -28 11 -38 47 -38 125 1 84 10 113 38 117 16 2 18 5 7 9 -8 3 -26 3 -40
0z"/>
<path d="M3619 1829 c17 -16 20 -33 20 -120 1 -60 5 -107 12 -115 13 -16 65
-19 74 -4 3 6 -1 10 -9 10 -13 0 -16 15 -16 94 0 106 -16 140 -70 148 -29 4
-30 4 -11 -13z"/>
<path d="M2921 1814 c-53 -67 -48 -159 10 -208 43 -36 100 -36 128 0 12 15 21
34 21 43 0 9 -8 0 -18 -19 -13 -27 -24 -36 -49 -38 -39 -4 -63 26 -63 80 l0
38 65 0 c65 0 65 0 65 29 0 35 -39 95 -65 99 -16 3 -18 1 -7 -9 6 -7 12 -35
12 -61 l0 -48 -35 0 c-34 0 -35 1 -35 41 0 22 5 49 10 60 17 30 -14 24 -39 -7z"/>
<path d="M3393 1829 c14 -9 17 -26 17 -120 0 -104 -1 -110 -22 -119 -17 -6 -6
-9 42 -8 36 0 57 2 48 5 -16 4 -18 19 -18 129 l0 124 -42 0 c-34 -1 -39 -3
-25 -11z"/>
<path d="M3539 1819 c-24 -24 -22 -62 5 -67 27 -6 42 13 26 33 -7 8 -10 24 -7
35 7 25 2 25 -24 -1z"/>
<path d="M3565 1714 c-39 -21 -55 -42 -55 -74 0 -36 29 -60 71 -60 33 0 33 0
11 16 -29 20 -31 85 -2 114 24 24 16 25 -25 4z"/>
</g>
</svg>
